<svg version="1.2" xmlns="http://www.w3.org/2000/svg" viewBox="0 0 1566 227" width="1566" height="227">
	<title>expedia-group-logo-white-svg</title>
	<style>
		.s0 { fill: #ffffff } 
	</style>
	<g id="Layer">
		<g id="Layer">
			<path id="Layer" class="s0" d="m98.3 108.7c-0.2-4.2-1.3-8.3-3.1-12.1-1.9-3.7-4.4-7.1-7.5-9.9-3.1-2.8-6.7-5-10.6-6.5-4-1.4-8.2-2.1-12.3-1.9-4.5 0-9 1-13.1 2.8-4.1 1.8-7.8 4.4-10.9 7.6-3.2 3.3-5.6 7.1-7.2 11.3-1.7 4.1-2.5 8.6-2.4 13.1 0 21 14.6 36.1 39.5 36.1h47.4c-2.8 4.4-6.2 8.5-10.1 12-3.8 3.6-8.1 6.6-12.8 9.1-4.6 2.5-9.5 4.4-14.6 5.7-5.1 1.2-10.3 1.9-15.6 1.8-26 0-49.4-15.6-59.4-39.6-9.9-24-4.4-51.6 14-70 18.4-18.4 46-23.9 70-13.9 24 9.9 39.7 33.3 39.7 59.3q0 2.5-0.2 5.1-0.3 2.5-0.6 5-0.4 2.5-1 5-0.6 2.5-1.3 4.9h-71.6v-7l25.2-0.8c12.8-0.5 18.5-7 18.5-17.1z"/>
		</g>
	</g>
	<g id="Layer">
		<path id="Layer" fill-rule="evenodd" class="s0" d="m182.6 89.2l24.5-35.9h33.8l-41.6 58 45 62.6h-35.9l-26.8-39-27.1 39h-33.8l44.2-61.1-42.9-59.5h35.9zm97.6 134.4h-31.2v-170.3h31.2v23.4c0 0.6 0.2 0.9 0.6 0.9 0.2 0 0.5-0.2 0.7-0.6 1.7-4 4-7.7 6.7-11.1 2.8-3.3 6-6.2 9.6-8.6 3.7-2.4 7.6-4.2 11.8-5.5 4.1-1.2 8.4-1.9 12.8-1.9q5.4 0.1 10.8 1.2 5.4 1.1 10.4 3.4 5 2.2 9.4 5.4 4.5 3.2 8.1 7.3 2 2.1 3.8 4.5 1.8 2.4 3.4 4.9 1.5 2.5 2.8 5.2 1.3 2.6 2.4 5.4 1.1 3.2 2 6.4 0.9 3.3 1.4 6.6 0.6 3.3 0.9 6.7 0.3 3.4 0.2 6.7 0.1 3.4-0.2 6.8-0.3 3.3-0.9 6.6-0.6 3.4-1.4 6.6-0.9 3.3-2.1 6.4-1 2.8-2.3 5.5-1.3 2.6-2.8 5.2-1.6 2.5-3.4 4.9-1.8 2.3-3.8 4.5-3.6 4-8.1 7.3-4.4 3.2-9.4 5.4-5 2.2-10.4 3.4-5.4 1.1-10.8 1.1c-4.4 0-8.7-0.6-12.8-1.9-4.2-1.2-8.1-3.1-11.8-5.4-3.6-2.4-6.8-5.3-9.6-8.7-2.7-3.3-5-7-6.7-11-0.2-0.4-0.5-0.7-0.7-0.7-0.4 0-0.6 0.4-0.6 0.9 0 0 0 73.1 0 73.1zm33.6-147.9q-3.4 0-6.7 0.7-3.3 0.8-6.3 2.1-3.1 1.4-5.8 3.4-2.7 2-5 4.4-2.5 2.8-4.5 6-1.9 3.2-3.2 6.7-1.4 3.5-2 7.2-0.7 3.7-0.6 7.4-0.1 3.7 0.6 7.4 0.6 3.7 2 7.2 1.3 3.5 3.2 6.7 2 3.2 4.5 6 2.3 2.5 5 4.4 2.7 2 5.8 3.4 3 1.4 6.3 2.1 3.3 0.7 6.7 0.8 3.4 0 6.7-0.8 3.3-0.7 6.3-2.1 3.1-1.3 5.9-3.3 2.7-2 4.9-4.5 2.5-2.8 4.5-6 1.9-3.2 3.2-6.7 1.3-3.5 2-7.2 0.6-3.7 0.6-7.4 0-3.7-0.6-7.4-0.7-3.7-2-7.2-1.3-3.5-3.2-6.7-2-3.2-4.5-6-2.2-2.5-5-4.4-2.7-2-5.8-3.4-3-1.4-6.3-2.1-3.4-0.7-6.7-0.7zm171.7 33c-0.3-4.2-1.3-8.3-3.1-12-1.9-3.8-4.4-7.2-7.5-10-3.1-2.8-6.7-5-10.7-6.5-3.9-1.4-8.1-2.1-12.2-1.9-4.5 0.1-9 1-13.1 2.8-4.1 1.8-7.8 4.4-11 7.6-3.1 3.3-5.5 7.1-7.2 11.3-1.6 4.2-2.4 8.6-2.3 13.1 0 21.1 14.6 36.1 39.5 36.1h47.4c-2.9 4.4-6.2 8.5-10.1 12-3.9 3.6-8.2 6.7-12.8 9.1-4.6 2.5-9.5 4.4-14.6 5.7-5.1 1.3-10.3 1.9-15.6 1.8-26 0-49.4-15.6-59.4-39.6-9.9-24-4.4-51.6 14-70 18.3-18.3 46-23.8 70-13.9 24 9.9 39.7 33.4 39.7 59.3q0 2.6-0.3 5.1-0.2 2.5-0.6 5-0.4 2.6-0.9 5-0.6 2.5-1.3 4.9h-71.6v-7l25.2-0.8c12.8-0.5 18.5-7 18.5-17.1zm96.8 68.6q-5.5 0-10.8-1.1-5.4-1.2-10.4-3.4-5-2.2-9.4-5.4-4.5-3.3-8.2-7.3-2-2.2-3.8-4.5-1.7-2.4-3.3-4.9-1.6-2.6-2.8-5.2-1.3-2.7-2.4-5.5-1.1-3.1-2-6.4-0.9-3.2-1.5-6.6-0.6-3.3-0.8-6.6-0.3-3.4-0.3-6.8 0-3.3 0.3-6.7 0.2-3.4 0.8-6.7 0.6-3.3 1.5-6.6 0.9-3.2 2-6.4 1.1-2.8 2.4-5.4 1.2-2.7 2.8-5.2 1.6-2.5 3.3-4.9 1.8-2.4 3.8-4.5 3.7-4.1 8.2-7.3 4.4-3.2 9.4-5.4 5-2.3 10.4-3.4 5.3-1.1 10.8-1.2c4.4 0 8.7 0.7 12.8 1.9 4.2 1.3 8.1 3.1 11.7 5.5 3.6 2.4 6.9 5.3 9.7 8.6 2.7 3.4 5 7.1 6.7 11.1 0.2 0.4 0.5 0.6 0.7 0.6 0.4 0 0.6-0.3 0.6-0.9v-75.6h31.2v172.8h-31.2v-23.4c0-0.5-0.2-0.9-0.6-0.9-0.2 0-0.5 0.3-0.7 0.7-1.7 4-4 7.7-6.7 11-2.8 3.4-6.1 6.3-9.7 8.7-3.6 2.3-7.5 4.2-11.7 5.4-4.1 1.3-8.4 1.9-12.8 1.9zm8.6-101.6q-3.4 0-6.7 0.7-3.3 0.7-6.4 2.1-3.1 1.4-5.8 3.4-2.7 2-5 4.5-2.5 2.8-4.4 6-2 3.1-3.3 6.6-1.3 3.5-1.9 7.2-0.7 3.7-0.6 7.4-0.1 3.8 0.6 7.5 0.6 3.6 1.9 7.1 1.3 3.5 3.3 6.7 1.9 3.2 4.4 6 2.3 2.5 5 4.5 2.7 2 5.8 3.4 3.1 1.4 6.4 2.1 3.3 0.7 6.7 0.7 3.4 0 6.6-0.8 3.3-0.7 6.4-2.1 3.1-1.4 5.8-3.3 2.7-2 5-4.5 2.5-2.8 4.4-6 2-3.1 3.3-6.6 1.3-3.5 2-7.2 0.6-3.7 0.6-7.5 0-3.7-0.6-7.4-0.7-3.7-2-7.2-1.3-3.5-3.3-6.7-1.9-3.1-4.4-5.9-2.3-2.5-5-4.5-2.7-2-5.8-3.3-3.1-1.4-6.3-2.1-3.3-0.8-6.7-0.8zm87.2-22.4h31.2v120.6h-31.2zm15.6-16.9c-2.4 0-4.7-0.5-6.9-1.4-2.2-0.9-4.2-2.3-5.9-4-1.7-1.7-3.1-3.7-4-5.8-0.9-2.2-1.4-4.6-1.4-7 0-2.4 0.5-4.7 1.4-6.9 1-2.2 2.3-4.2 4-5.9 1.7-1.7 3.7-3 5.9-3.9 2.2-1 4.5-1.4 6.9-1.5 2.4 0.1 4.7 0.5 6.9 1.5 2.2 0.9 4.2 2.2 5.9 3.9 1.7 1.7 3 3.7 4 5.9 0.9 2.2 1.4 4.5 1.4 6.9 0 2.4-0.5 4.8-1.4 7-1 2.1-2.3 4.1-4 5.8-1.7 1.7-3.7 3.1-5.9 4-2.2 0.9-4.5 1.4-6.9 1.4zm86.9 140.9q-5.5 0-10.8-1.1-5.4-1.2-10.4-3.4-5-2.2-9.4-5.4-4.5-3.3-8.2-7.3-2-2.2-3.8-4.5-1.8-2.4-3.3-4.9-1.6-2.6-2.9-5.2-1.3-2.7-2.3-5.5-1.2-3.1-2-6.4-0.9-3.2-1.5-6.6-0.6-3.3-0.8-6.6-0.3-3.4-0.3-6.8 0-3.3 0.3-6.7 0.2-3.4 0.8-6.7 0.6-3.3 1.5-6.6 0.8-3.2 2-6.4 1-2.8 2.3-5.4 1.3-2.7 2.9-5.2 1.5-2.5 3.3-4.9 1.8-2.4 3.8-4.5 3.7-4.1 8.2-7.3 4.4-3.2 9.4-5.4 5-2.3 10.4-3.4 5.3-1.1 10.8-1.2c4.3 0 8.7 0.7 12.8 1.9 4.2 1.3 8.1 3.1 11.7 5.5 3.6 2.4 6.9 5.3 9.6 8.6 2.8 3.4 5.1 7.1 6.8 11.1 0.2 0.4 0.4 0.6 0.7 0.6 0.3 0 0.6-0.3 0.6-0.9v-23.4h31.2v120.6h-31.2v-23.4c0-0.5-0.3-0.9-0.6-0.9-0.3 0-0.5 0.3-0.7 0.7-1.7 4-4 7.7-6.8 11-2.7 3.4-6 6.3-9.6 8.7-3.6 2.3-7.5 4.2-11.7 5.4-4.1 1.3-8.5 1.9-12.8 1.9zm8.6-101.6q-3.4 0-6.7 0.7-3.3 0.7-6.4 2.1-3.1 1.4-5.8 3.4-2.7 1.9-5 4.4-2.5 2.8-4.4 6-2 3.2-3.3 6.7-1.3 3.5-1.9 7.2-0.7 3.7-0.6 7.4-0.1 3.8 0.6 7.4 0.6 3.7 1.9 7.2 1.3 3.5 3.3 6.7 1.9 3.2 4.4 6 2.3 2.5 5 4.5 2.7 2 5.8 3.4 3.1 1.3 6.4 2.1 3.3 0.7 6.7 0.7 3.4-0.1 6.6-0.8 3.3-0.7 6.4-2.1 3.1-1.4 5.8-3.4 2.7-1.9 5-4.4 2.5-2.8 4.4-6 2-3.2 3.3-6.7 1.3-3.5 2-7.2 0.6-3.6 0.6-7.4 0-3.7-0.6-7.4-0.7-3.7-2-7.2-1.3-3.5-3.3-6.7-1.9-3.2-4.4-5.9-2.3-2.5-5-4.5-2.7-2-5.8-3.3-3.1-1.4-6.4-2.1-3.2-0.8-6.6-0.8zm188.1 150.7q-3.9 0.1-7.9-0.3-4-0.3-7.9-1-3.9-0.7-7.7-1.8-3.9-1-7.6-2.4-3.5-1.3-6.8-3-3.3-1.6-6.5-3.5-3.2-2-6.1-4.2-3-2.3-5.7-4.8l18.7-20.3c12.1 9.6 22 15.1 37 15.1q3.5 0.2 7-0.4 3.4-0.6 6.7-1.9 3.2-1.4 6.1-3.5 2.8-2.1 5.1-4.8 2-2.7 3.5-5.8 1.5-3 2.5-6.3 1-3.3 1.4-6.6 0.4-3.4 0.2-6.8v-14.6c0-0.5-0.2-0.9-0.5-0.9-0.3 0-0.5 0.2-0.8 0.7-1.6 3.9-3.8 7.6-6.6 10.9-2.7 3.4-5.9 6.3-9.4 8.6-3.6 2.4-7.5 4.3-11.6 5.6-4.1 1.2-8.4 1.9-12.7 1.9q-5.4 0-10.7-1.2-5.3-1.1-10.3-3.3-5-2.2-9.4-5.4-4.4-3.2-8-7.2-2-2.1-3.8-4.5-1.8-2.3-3.3-4.8-1.5-2.5-2.8-5.2-1.3-2.6-2.3-5.4-1.2-3.1-2-6.3-0.9-3.3-1.5-6.6-0.5-3.3-0.8-6.6-0.3-3.3-0.3-6.7 0-3.3 0.3-6.7 0.3-3.3 0.8-6.6 0.6-3.3 1.5-6.5 0.8-3.3 2-6.4 1-2.8 2.3-5.4 1.3-2.6 2.8-5.2 1.5-2.5 3.3-4.8 1.8-2.3 3.8-4.5 3.6-4 8-7.2 4.4-3.2 9.4-5.4 5-2.2 10.3-3.3 5.3-1.1 10.7-1.2c4.3 0.1 8.6 0.7 12.7 2 4.1 1.2 8 3.1 11.5 5.5 3.6 2.4 6.8 5.3 9.5 8.6 2.8 3.3 5 7 6.6 11 0.2 0.4 0.5 0.6 0.8 0.6 0.3 0 0.5-0.3 0.5-0.9v-23.4h31.3v113.6q0.1 5.9-0.9 11.6-1 5.8-3.2 11.3-2.1 5.4-5.3 10.3-3.1 5-7.2 9.2c-11.4 11.2-27.5 17.1-46.7 17.1zm-1-150.7q-3.3 0-6.6 0.7-3.2 0.7-6.3 2.1-3 1.3-5.7 3.3-2.7 1.9-4.9 4.4-2.5 2.7-4.4 5.9-1.9 3.2-3.2 6.6-1.3 3.5-1.9 7.1-0.6 3.6-0.6 7.3 0 3.7 0.6 7.3 0.6 3.7 1.9 7.1 1.3 3.5 3.2 6.6 1.9 3.2 4.4 5.9 2.2 2.5 4.9 4.4 2.7 2 5.7 3.4 3.1 1.3 6.3 2 3.3 0.7 6.6 0.7 3.3 0 6.5-0.7 3.3-0.7 6.3-2.1 3-1.4 5.7-3.3 2.7-1.9 4.9-4.4 2.5-2.7 4.4-5.9 1.9-3.1 3.2-6.6 1.4-3.4 2-7.1 0.6-3.6 0.6-7.3 0-3.7-0.6-7.3-0.7-3.7-2-7.1-1.3-3.5-3.2-6.6-1.9-3.2-4.4-5.9-2.2-2.4-4.9-4.4-2.7-1.9-5.7-3.3-3-1.3-6.3-2.1-3.2-0.7-6.5-0.7zm117.9-22.4v26.3c0 0.5 0.5 0.8 0.8 0 4.1-21.6 13.5-29.7 29.6-29.7h2.9v32.8h-14.1c-12.7 0-19.2 9.9-19.2 23.9v67.3h-31.3v-120.6zm99.7 124.5c-17.1 0.2-33.6-6.5-45.8-18.6-12.2-12-19-28.5-19-45.6 0-17.1 6.8-33.5 19-45.6 12.2-12 28.7-18.7 45.8-18.6q6.3 0 12.5 1.3 6.2 1.2 12 3.6 5.8 2.4 11 6 5.3 3.5 9.7 8c6 5.9 10.7 13 13.9 20.8 3.3 7.8 4.9 16.1 4.9 24.5 0 8.5-1.6 16.8-4.9 24.6-3.2 7.8-7.9 14.8-13.9 20.8q-4.4 4.5-9.7 8-5.2 3.5-11 5.9-5.8 2.5-12 3.7-6.2 1.2-12.5 1.2zm-0.2-100q-3.4 0-6.7 0.6-3.3 0.7-6.4 2-3.2 1.4-5.9 3.3-2.8 1.9-5.1 4.4-2.4 2.5-4.3 5.5-1.9 3-3.2 6.3-1.3 3.3-1.9 6.7-0.7 3.5-0.6 7-0.1 3.6 0.6 7 0.6 3.5 1.9 6.8 1.3 3.3 3.2 6.2 1.9 3 4.3 5.6c3.1 3.2 6.8 5.8 11 7.6 4.1 1.8 8.5 2.7 13.1 2.7 4.5 0 8.9-0.9 13.1-2.7 4.1-1.8 7.8-4.4 10.9-7.6q2.4-2.6 4.3-5.6 1.9-2.9 3.2-6.2 1.3-3.3 1.9-6.8 0.7-3.4 0.6-7 0.1-3.5-0.6-7-0.6-3.4-1.9-6.7-1.3-3.3-3.2-6.3-1.9-3-4.3-5.5-2.3-2.5-5.1-4.4-2.7-1.9-5.8-3.3-3.1-1.3-6.5-2-3.3-0.6-6.6-0.6zm129 100c-30.4 0-49.9-18.4-49.9-45.5v-79h31.2v76.7c-0.2 2.6 0.2 5.2 1.1 7.7 0.9 2.5 2.3 4.7 4.2 6.6 1.8 1.8 4 3.3 6.5 4.2 2.4 1 5.1 1.4 7.7 1.2 2.5 0.1 5.1-0.4 7.4-1.4 2.3-1 4.4-2.4 6.2-4.3 1.8-1.8 3.1-3.9 4-6.3 0.9-2.4 1.3-4.9 1.1-7.5v-76.9h31.3v79c0 27.1-21.1 45.5-50.8 45.5zm103.6 45.8h-31.2v-170.3h31.2v23.4c0 0.6 0.2 0.9 0.5 0.9 0.3 0 0.6-0.2 0.8-0.6 1.7-4 3.9-7.7 6.7-11.1 2.8-3.3 6-6.2 9.6-8.6 3.7-2.4 7.6-4.2 11.8-5.5 4.1-1.2 8.4-1.9 12.7-1.9q5.5 0.1 10.9 1.2 5.3 1.1 10.4 3.4 5 2.2 9.4 5.4 4.4 3.2 8.1 7.3 2 2.1 3.8 4.5 1.8 2.4 3.4 4.9 1.5 2.5 2.8 5.2 1.3 2.6 2.3 5.4 1.2 3.2 2.1 6.4 0.9 3.3 1.4 6.6 0.6 3.3 0.9 6.7 0.3 3.4 0.2 6.7 0 3.4-0.2 6.8-0.3 3.3-0.9 6.6-0.6 3.4-1.4 6.6-0.9 3.3-2.1 6.4-1 2.8-2.3 5.5-1.3 2.6-2.8 5.2-1.6 2.5-3.4 4.9-1.8 2.3-3.8 4.5-3.7 4-8.1 7.3-4.4 3.2-9.4 5.4-5.1 2.2-10.4 3.4-5.4 1.1-10.9 1.1c-4.3 0-8.6-0.6-12.7-1.9-4.2-1.2-8.1-3.1-11.8-5.4-3.6-2.4-6.8-5.3-9.6-8.7-2.8-3.3-5-7-6.7-11-0.2-0.4-0.5-0.7-0.8-0.7-0.3 0-0.5 0.4-0.5 0.9 0 0 0 73.1 0 73.1zm33.6-147.9q-3.4 0-6.7 0.7-3.3 0.8-6.3 2.1-3.1 1.4-5.8 3.4-2.7 2-5 4.4-2.5 2.8-4.5 6-1.9 3.2-3.3 6.7-1.3 3.5-1.9 7.2-0.7 3.7-0.6 7.4-0.1 3.7 0.6 7.4 0.6 3.7 1.9 7.2 1.4 3.5 3.3 6.7 2 3.2 4.5 6 2.2 2.5 5 4.4 2.7 2 5.8 3.4 3 1.4 6.3 2.1 3.3 0.7 6.7 0.8 3.3 0 6.6-0.8 3.3-0.7 6.4-2.1 3.1-1.3 5.8-3.3 2.8-2 5-4.5 2.5-2.8 4.5-6 1.9-3.2 3.2-6.7 1.3-3.5 2-7.2 0.6-3.7 0.5-7.4 0.1-3.7-0.5-7.4-0.7-3.7-2-7.2-1.3-3.5-3.2-6.7-2-3.2-4.5-6-2.2-2.5-5-4.4-2.7-2-5.8-3.4-3.1-1.4-6.4-2.1-3.3-0.7-6.6-0.7zm86.3-22v3.2h-5.4v14.9h-3.8v-14.9h-5.4v-3.2zm14.2 0h5.4v18.1h-3.5c0-0.4 0-13.1 0-13.7q0-0.9 0-1.5l-3.4 15.2h-3.7l-3.4-15.2q0 0.6 0 1.5 0 1 0 1.5v12.2h-3.5v-18.1h5.5l3.3 14.2z"/>
	</g>
</svg>